<mxfile host="Electron" modified="2024-06-17T22:24:36.653Z" agent="Mozilla/5.0 (Windows NT 10.0; Win64; x64) AppleWebKit/537.36 (KHTML, like Gecko) draw.io/22.0.0 Chrome/114.0.5735.289 Electron/25.8.3 Safari/537.36" etag="8xWZSkxqr49TBgMYXc_B" version="22.0.0" type="device">
  <diagram name="Page-1" id="bkLmm-mtqCr0ykcM9KyC">
    <mxGraphModel dx="2058" dy="828" grid="0" gridSize="10" guides="1" tooltips="1" connect="1" arrows="1" fold="1" page="0" pageScale="1" pageWidth="827" pageHeight="1169" math="0" shadow="0">
      <root>
        <mxCell id="0" />
        <mxCell id="1" parent="0" />
        <mxCell id="4UgHD-f-7NCbtPTrwkLS-1" value="" style="rounded=0;whiteSpace=wrap;html=1;fillColor=#999999;" vertex="1" parent="1">
          <mxGeometry x="-124" y="20" width="904" height="51" as="geometry" />
        </mxCell>
        <mxCell id="4UgHD-f-7NCbtPTrwkLS-2" value="&lt;font style=&quot;font-size: 10px;&quot;&gt;(linkedin)&lt;/font&gt;" style="rounded=0;whiteSpace=wrap;html=1;" vertex="1" parent="1">
          <mxGeometry x="729" y="24" width="43" height="43" as="geometry" />
        </mxCell>
        <mxCell id="4UgHD-f-7NCbtPTrwkLS-3" value="&lt;font style=&quot;font-size: 10px;&quot;&gt;(Github)&lt;/font&gt;" style="rounded=0;whiteSpace=wrap;html=1;" vertex="1" parent="1">
          <mxGeometry x="678" y="24" width="43" height="43" as="geometry" />
        </mxCell>
        <mxCell id="4UgHD-f-7NCbtPTrwkLS-4" value="&lt;span style=&quot;font-size: 10px;&quot;&gt;(Gmail)&lt;/span&gt;" style="rounded=0;whiteSpace=wrap;html=1;" vertex="1" parent="1">
          <mxGeometry x="627" y="24" width="43" height="43" as="geometry" />
        </mxCell>
        <mxCell id="4UgHD-f-7NCbtPTrwkLS-5" value="Contact:" style="text;html=1;strokeColor=none;fillColor=none;align=center;verticalAlign=middle;whiteSpace=wrap;rounded=0;" vertex="1" parent="1">
          <mxGeometry x="559" y="30.5" width="60" height="30" as="geometry" />
        </mxCell>
        <mxCell id="4UgHD-f-7NCbtPTrwkLS-7" value="&lt;font style=&quot;font-size: 18px;&quot;&gt;Home&lt;/font&gt;" style="rounded=0;whiteSpace=wrap;html=1;" vertex="1" parent="1">
          <mxGeometry x="-115" y="24" width="96" height="43" as="geometry" />
        </mxCell>
        <mxCell id="4UgHD-f-7NCbtPTrwkLS-8" value="&lt;span style=&quot;font-size: 18px;&quot;&gt;Portfolio&lt;/span&gt;" style="rounded=0;whiteSpace=wrap;html=1;" vertex="1" parent="1">
          <mxGeometry x="-1" y="24" width="96" height="43" as="geometry" />
        </mxCell>
        <mxCell id="4UgHD-f-7NCbtPTrwkLS-9" value="&lt;span style=&quot;font-size: 18px;&quot;&gt;Resume&lt;/span&gt;" style="rounded=0;whiteSpace=wrap;html=1;" vertex="1" parent="1">
          <mxGeometry x="115" y="24" width="96" height="43" as="geometry" />
        </mxCell>
        <mxCell id="4UgHD-f-7NCbtPTrwkLS-11" value="" style="rounded=0;whiteSpace=wrap;html=1;fillColor=#B8B8B8;" vertex="1" parent="1">
          <mxGeometry x="-124" y="71" width="904" height="769" as="geometry" />
        </mxCell>
        <mxCell id="4UgHD-f-7NCbtPTrwkLS-13" value="&lt;h2&gt;&lt;font style=&quot;font-size: 24px;&quot;&gt;&lt;u&gt;Jamie Phillips&lt;/u&gt;&lt;/font&gt;&lt;/h2&gt;" style="text;html=1;strokeColor=none;fillColor=#999999;align=center;verticalAlign=middle;whiteSpace=wrap;rounded=0;" vertex="1" parent="1">
          <mxGeometry x="-97" y="202" width="231" height="30" as="geometry" />
        </mxCell>
        <mxCell id="4UgHD-f-7NCbtPTrwkLS-15" value="" style="rounded=0;whiteSpace=wrap;html=1;" vertex="1" parent="1">
          <mxGeometry x="-99" y="260" width="230" height="243" as="geometry" />
        </mxCell>
        <mxCell id="4UgHD-f-7NCbtPTrwkLS-14" value="&lt;font style=&quot;font-size: 24px;&quot;&gt;(Description)&lt;/font&gt;" style="text;html=1;strokeColor=none;fillColor=none;align=center;verticalAlign=middle;whiteSpace=wrap;rounded=0;" vertex="1" parent="1">
          <mxGeometry x="-23" y="280" width="78" height="203" as="geometry" />
        </mxCell>
        <mxCell id="4UgHD-f-7NCbtPTrwkLS-16" value="(Photo)" style="ellipse;whiteSpace=wrap;html=1;aspect=fixed;" vertex="1" parent="1">
          <mxGeometry x="464" y="175" width="240" height="240" as="geometry" />
        </mxCell>
        <mxCell id="4UgHD-f-7NCbtPTrwkLS-17" value="&lt;font style=&quot;font-size: 24px;&quot;&gt;(REFERENCES)&lt;/font&gt;" style="rounded=0;whiteSpace=wrap;html=1;" vertex="1" parent="1">
          <mxGeometry x="-97" y="541" width="837" height="216" as="geometry" />
        </mxCell>
        <mxCell id="4UgHD-f-7NCbtPTrwkLS-18" value="(CONTACT ME BUTTON)" style="rounded=0;whiteSpace=wrap;html=1;" vertex="1" parent="1">
          <mxGeometry x="167" y="780" width="338" height="47" as="geometry" />
        </mxCell>
      </root>
    </mxGraphModel>
  </diagram>
</mxfile>
